<svg xmlns="http://www.w3.org/2000/svg" width="59.129" height="59.862" viewBox="0 0 59.129 59.862">
  <g id="Group_8" data-name="Group 8" transform="translate(0 0)">
    <path id="Path_5" data-name="Path 5" d="M282.389,336h.119c1.215,1.4,2.448,2.3,3.34,3.818,2.883,4.916-.251,10.931-1.67,15.628h8.59c2.944,0,6.11-.413,8.47.119,4.794,1.082,5.846,8.081,2.147,10.618,3.837,2.2,2.345,9.966-2.028,10.379,2.691,3.814.3,9.766-4.533,9.663,2.183,3.156.384,7.841-2.744,9.067-2.618,1.025-7.3.358-11.333.358-3.545,0-7.094.365-10.14,0a52.284,52.284,0,0,1-6.8-1.789,30.955,30.955,0,0,0-7.4-1.312c-.947,1.142-1.335,2.3-2.982,2.864-2.346.806-5.925-.1-8.947.238V352.224c3.153.345,6.809-.616,9.186.358,1.48.607,1.866,1.72,2.744,2.863,1.2-.285,3.052.374,4.414,0,.574-.157,1.7-1.464,2.505-2.267C270.958,347.55,277.254,341.178,282.389,336Zm.239,3.7c-.12,0-.142-.1-.239-.119-4.392,4.219-9.339,9.339-13.958,13.958-1.168,1.168-3.522,4.113-4.772,4.414-1.667.4-3.733-.306-5.249,0v32.092c.7.068,1.472-.091,2.147,0,4.322.58,8.276,2.769,13,3.221a76.7,76.7,0,0,0,9.663-.119c3.027-.121,7.186.647,9.782-.119,3.628-1.072,2.754-8.022-2.505-6.8a10.112,10.112,0,0,1,.119-2.505c2.829-.405,4.832.609,7.158-.119,3.045-.952,2.842-5.464.238-6.561-2.058-.868-5.08.156-7.754-.239a10.11,10.11,0,0,1,.119-2.505c3.431-.581,7.374.833,10.5-.119,2.914-.888,3.062-5.768,0-6.681-3.222-.96-7.188.472-10.856-.119a10.111,10.111,0,0,1,.119-2.505c4.759-.481,14.339,2.014,13-4.414-.572-2.753-3.837-2.505-7.516-2.505-5.633,0-11.338.1-16.463-.119v-2.386h2.267C282.688,351,287.052,343.836,282.627,339.7Zm-33.642,15.389v38.056c1.825-.279,5.353.613,6.442-.6,1.006-1.118.477-6.261.477-8.828V364.87c0-2.016.541-7.827-.239-9.186-.886-1.545-4.671-.768-6.561-.954C248.965,354.75,248.975,354.919,248.985,355.088Z" transform="translate(-246.48 -336)" fill="#fff" fill-rule="evenodd"/>
  </g>
</svg>
