<svg xmlns="http://www.w3.org/2000/svg" width="76.03" height="76.067" viewBox="0 0 76.03 76.067">
  <g id="Group_14" data-name="Group 14" transform="translate(0 0)">
    <path id="Path_6" data-name="Path 6" d="M119.084,186.5a30.591,30.591,0,0,1,.767,5.062c.774,15.1-8.348,24.949-17.488,29.3a32.05,32.05,0,0,1-19.789,2.148,30.078,30.078,0,0,1-23.318-23.471A31.735,31.735,0,0,1,61.4,179.907a30.669,30.669,0,0,1,34.21-16.721c2.7-8.246,7.974-14.772,17.8-15.494a19.58,19.58,0,0,1,19.483,27.46A19.359,19.359,0,0,1,119.084,186.5Zm-21.323-20.25c-.693,10.791,7.64,17.711,16.108,18.255A17.017,17.017,0,0,0,132.124,166.1a18.29,18.29,0,0,0-4.909-10.892,17.2,17.2,0,0,0-13.96-4.909A16.96,16.96,0,0,0,97.761,166.254Zm-35.284,17.8a28.68,28.68,0,0,0,9.2,31.295c9.315,7.275,23.594,7.651,32.982,1.381,8.2-5.478,14.991-15.869,11.812-29.914-.464.354-1.582.054-2.3.153a26.045,26.045,0,0,1-13.806,29.454c-9.976,4.778-22.48,1.912-29.454-5.062-6.783-6.783-10-19.353-5.062-29.454,3.693-7.559,12.041-15.384,24.852-14.574a33.24,33.24,0,0,1,4.6.767V165.64C78.509,162.22,66.344,172.53,62.477,184.049Zm25.159-14.267a25.334,25.334,0,0,0-13.96,5.829c.248.928,1.286,1.066,1.534,1.994-.654.42-1.033,1.114-1.687,1.534-.727-.4-.987-1.263-1.841-1.534a25,25,0,0,0-5.829,14.267h2.455c-.1.77.2,1.94-.153,2.454h-2.3a25,25,0,0,0,5.829,14.267c.928-.248,1.066-1.286,1.994-1.534.42.654,1.114,1.034,1.534,1.688-.4.727-1.263.987-1.534,1.841a25,25,0,0,0,14.267,5.83v-2.455c.77.1,1.94-.2,2.455.153v2.3a25,25,0,0,0,14.267-5.83c-.248-.928-1.286-1.066-1.534-1.994.654-.42,1.033-1.114,1.687-1.534.727.4.987,1.263,1.841,1.534a25,25,0,0,0,5.829-14.267h-2.454c.1-.77-.2-1.94.153-2.454h2.3a31.811,31.811,0,0,0-.92-5.216Q98.5,183.77,95.613,170.7a31.781,31.781,0,0,0-5.216-.921v2.455c-.77-.1-1.94.2-2.455-.153C87.769,171.388,88.309,169.979,87.636,169.782Z" transform="translate(-58.577 -147.636)" fill="#fff" fill-rule="evenodd"/>
    <path id="Path_7" data-name="Path 7" d="M112.239,184.781a35.612,35.612,0,0,0-18.562,7.67c-.332.263-2.078,1.69-1.994,1.688-.782.025-1.409-1.776-1.688-1.994a39.471,39.471,0,0,1,21.937-9.818c1.2-1.871,3.253-3.37,5.523-2.3,4.013,1.89,1.358,8.979-3.375,6.75C113.265,186.392,112.957,185.551,112.239,184.781Zm2.3-.92c.8,2.559,3.914-1.093,1.688-1.688a1.528,1.528,0,0,0-.92.153C114.661,182.6,114.19,182.74,114.54,183.861Z" transform="translate(-85.175 -174.754)" fill="#fff" fill-rule="evenodd"/>
    <path id="Path_8" data-name="Path 8" d="M347.867,221.715H356v2.454H344.953c-.506-2.959.691-3.713,2.148-5.369.79-.9,1.5-1.88,2.148-2.608,1.517-1.7,3.969-3.483,4.3-5.216.981-5.217-7.573-5.4-6.136.92h-2.455c-1.545-7.055,7.11-9.442,10.125-5.062,2.979,4.326-1.14,7.89-3.375,10.432C350.262,218.9,348.88,220.447,347.867,221.715Z" transform="translate(-300.86 -195.887)" fill="#fff" fill-rule="evenodd"/>
    <path id="Path_9" data-name="Path 9" d="M443.63,203.992v13.346c.515.355,1.685.054,2.454.153v2.455H443.63v3.682h-2.455V220.1c-2.148-.358-4.96-.051-7.363-.153-.267-3.919,1.634-5.894,3.221-9.051,1.28-2.545,2.293-5.171,3.528-6.9Zm-7.21,13.5h4.756c-.1-3.068.2-6.545-.153-9.358C439.591,211.356,437.937,214.355,436.42,217.492Z" transform="translate(-376.22 -195.346)" fill="#fff" fill-rule="evenodd"/>
    <path id="Path_11" data-name="Path 11" d="M239.587,323.977V338.7c1.39.9,3.211,2.7,2.148,5.062,2.57,3.158,5.74,5.714,8.438,8.744-.3.775-.981,1.167-1.534,1.687-3.158-2.57-5.714-5.74-8.744-8.437-5.009,2.167-7.04-5.677-2.761-6.9v-14.88Zm-2.455,18.869c.8,2.559,3.914-1.093,1.688-1.688a1.528,1.528,0,0,0-.92.153C237.253,341.583,236.783,341.725,237.132,342.846Z" transform="translate(-207.767 -296.922)" fill="#fff" fill-rule="evenodd"/>
    <path id="Path_12" data-name="Path 12" d="M425.794,450.817c-.854-.271-1.114-1.136-1.841-1.534a37.132,37.132,0,0,0,9.971-21.323c-1.451-.943-3.045-3.137-1.994-5.369,1.746-3.708,9.089-1.59,6.75,3.375-.441.936-1.42,1.215-2.3,1.994A38.694,38.694,0,0,1,425.794,450.817Zm8.284-26.079c.8,2.559,3.914-1.094,1.687-1.687a1.528,1.528,0,0,0-.92.153C434.2,423.475,433.728,423.617,434.078,424.738Z" transform="translate(-367.895 -378.814)" fill="#fff" fill-rule="evenodd"/>
  </g>
</svg>
