<svg xmlns="http://www.w3.org/2000/svg" width="72.207" height="78.68" viewBox="0 0 72.207 78.68">
  <g id="Group_15" data-name="Group 15" transform="translate(0 0)">
    <path id="Path_14" data-name="Path 14" d="M133.669,157.342c2.391.768,5.94-.473,8.505.16,1.688.416,4.742,4.261,6.1,5.617,1.788,1.788,5.18,4.325,5.617,6.1.585,2.376,0,6.808,0,9.789,0,2.464.7,7.243,0,9.789-.369,1.336-3.682,4-4.975,5.3l-30.651,30.651c-1.358,1.358-4,4.654-5.456,4.654-1.411,0-3.028-2.386-4.172-3.531L85.525,202.758c-1.069-1.069-3.559-2.7-3.53-4.172.026-1.337,3.485-4.127,4.814-5.456,10.465-10.465,20.315-20.154,30.812-30.652,1.383-1.383,3.7-4.578,5.135-4.975,2.18-.6,4.842.45,7.061,0,.949-2.4,1.4-6.278,3.852-6.74a1.942,1.942,0,0,1,2.407,1.444C136.432,154.342,133.372,155.305,133.669,157.342Zm-9.95,3.691c-12.557,12.531-25.262,24.914-37.552,37.712,9.054,8.706,17.612,17.907,26.8,26.479,10.017-10.25,22.543-22.543,33.059-33.058,1.288-1.288,4.171-3.635,4.493-4.975.52-2.156,0-5.749,0-8.345,0-2.619.612-6.113,0-8.345-.431-1.572-3.456-3.616-4.654-4.814-1.329-1.329-3.094-4.2-4.975-4.654-2.157-.52-4.29.387-6.74,0,1.653,2.894,4.538,4.556,4.333,9.308,1.415,1.3,2.237,1.789,2.889,3.37,4.105,9.965-12.157,13.244-13.159,3.531a7.337,7.337,0,0,1,6.58-7.863c-.562-3.717-4.134-4.425-4.493-8.345Zm7.863,15.566c.282,5.476,9.706,2.893,6.1-2.247-.883,1.576-1.777,4.187-4.012,3.691-2.668-.593-.28-4.031.321-4.975C132.638,173.84,131.485,174.706,131.583,176.6Z" transform="translate(-81.995 -150.718)" fill="#fff" fill-rule="evenodd"/>
    <path id="Path_15" data-name="Path 15" d="M242.981,385.759c1.524-.366,2.989,1.866,4.172,3.049l6.9,6.9c1.379,1.38,3.157,2.5,3.049,3.851A1.852,1.852,0,0,1,255.98,401c-1.852.466-3.329-2.045-4.172-2.888-2.2-2.2-4.78-4.619-7.061-6.9C243.824,390.293,239.494,386.6,242.981,385.759Z" transform="translate(-216.021 -348.002)" fill="#fff" fill-rule="evenodd"/>
    <path id="Path_16" data-name="Path 16" d="M199.859,428.563c1.568-.534,3.463,1.858,4.493,2.889l7.061,7.061c1.118,1.118,3.252,2.737,2.728,4.333-.985,3-4.673-1.463-5.3-2.086l-6.9-6.9C200.992,432.906,196.635,429.661,199.859,428.563Z" transform="translate(-179.959 -383.905)" fill="#fff" fill-rule="evenodd"/>
  </g>
</svg>
