<svg xmlns="http://www.w3.org/2000/svg" width="86.859" height="61.549" viewBox="0 0 86.859 61.549">
  <g id="Group_66" data-name="Group 66" transform="translate(-78.912 -237.336)">
    <path id="Path_18" data-name="Path 18" d="M113.771,237.461c5.862-.279,13.88,0,20.753,0,6.644,0,14.214-.25,19.04,1.523,10.548,3.876,11.973,14.623,12.185,28.559.11,7.231-.151,14.416-1.9,19.611a16.113,16.113,0,0,1-10.662,10.472c-3.835,1.075-9.644.765-15.041.952-10.71.371-20.575.449-31.225,0-5.045-.213-10.394.285-15.041-.762a16.826,16.826,0,0,1-11.424-10.091c-1.806-4.983-1.523-12-1.523-18.469,0-15.285.706-25.957,11.233-30.273C95.469,236.808,105.4,237.859,113.771,237.461Zm-8,6.283c-4.483.189-9.369-.433-12.947.952a11.543,11.543,0,0,0-6.473,6.474c-1.515,3.863-1.333,11.987-1.333,17.326,0,6.908-.347,13.079,1.333,17.326,2.79,7.054,10.358,6.487,20.182,6.854,10.967.411,20.213.405,31.035,0,4.739-.177,11.17.2,14.66-1.142,5.755-2.213,6.171-7.036,6.854-13.9a87.212,87.212,0,0,0,.571-8.949c-.044-10.558-.339-21.394-8.187-24.18-3.977-1.412-10.178-.781-15.613-.952-5.237-.164-11.721-.2-15.993,0C115.239,243.773,110.389,243.549,105.774,243.743Z" transform="translate(0)" fill="#fff" fill-rule="evenodd"/>
    <path id="Path_19" data-name="Path 19" d="M250.539,348.393c3.817-1.387,7.968-4.09,12-5.9-3.512-1.984-6.222-3.482-9.52-5.141-2.242-1.128-8.513-2.919-8.568-6.093-.1-6.108,7.556-1.159,9.9,0,3.929,1.943,8.564,4.556,12.757,6.664,2.519,1.267,5.227,2.168,5.141,4.57-.093,2.587-3.548,3.639-5.331,4.57-4.5,2.347-8.191,4.121-13.137,6.664-2.115,1.088-7.459,5.471-9.139,1.333-.572-1.408-.19-4.379-.19-7.045,0-3.913-.768-8.68,2.856-8.758C251.273,339.168,250.489,343.461,250.539,348.393Z" transform="translate(-133.912 -73.614)" fill="#fff" fill-rule="evenodd"/>
  </g>
</svg>
